<mxfile host="app.diagrams.net" modified="2022-01-19T17:39:11.452Z" agent="5.0 (Windows)" etag="WwfyDcJLkcuA1hXUxGRU" version="16.2.7" type="github">
  <diagram id="s42hxG2EUbrxExsFJtjo" name="Page-1">
    <mxGraphModel dx="782" dy="392" grid="1" gridSize="10" guides="1" tooltips="1" connect="1" arrows="1" fold="1" page="1" pageScale="1" pageWidth="850" pageHeight="1100" math="0" shadow="0">
      <root>
        <mxCell id="0" />
        <mxCell id="1" parent="0" />
        <mxCell id="5MSsTgGG1FDZMkBkM36z-31" style="edgeStyle=orthogonalEdgeStyle;rounded=0;orthogonalLoop=1;jettySize=auto;html=1;entryX=1;entryY=0.75;entryDx=0;entryDy=0;startArrow=classic;startFill=1;" edge="1" parent="1" source="5MSsTgGG1FDZMkBkM36z-2" target="5MSsTgGG1FDZMkBkM36z-4">
          <mxGeometry relative="1" as="geometry" />
        </mxCell>
        <mxCell id="5MSsTgGG1FDZMkBkM36z-2" value="Matches Notification Queue" style="rounded=0;whiteSpace=wrap;html=1;fillColor=#d5e8d4;strokeColor=#82b366;" vertex="1" parent="1">
          <mxGeometry x="715" y="180" width="60" height="50" as="geometry" />
        </mxCell>
        <mxCell id="5MSsTgGG1FDZMkBkM36z-3" value="Geo Hash Index" style="rounded=0;whiteSpace=wrap;html=1;fillColor=#dae8fc;strokeColor=#6c8ebf;" vertex="1" parent="1">
          <mxGeometry x="545" y="320" width="60" height="50" as="geometry" />
        </mxCell>
        <mxCell id="5MSsTgGG1FDZMkBkM36z-21" value="" style="edgeStyle=orthogonalEdgeStyle;rounded=0;orthogonalLoop=1;jettySize=auto;html=1;startArrow=classic;startFill=1;" edge="1" parent="1" source="5MSsTgGG1FDZMkBkM36z-4" target="5MSsTgGG1FDZMkBkM36z-15">
          <mxGeometry relative="1" as="geometry" />
        </mxCell>
        <mxCell id="5MSsTgGG1FDZMkBkM36z-4" value="Matcher Worker" style="rounded=0;whiteSpace=wrap;html=1;fillColor=#dae8fc;strokeColor=#6c8ebf;" vertex="1" parent="1">
          <mxGeometry x="570" y="20" width="60" height="50" as="geometry" />
        </mxCell>
        <mxCell id="5MSsTgGG1FDZMkBkM36z-28" style="edgeStyle=orthogonalEdgeStyle;rounded=0;orthogonalLoop=1;jettySize=auto;html=1;entryX=0;entryY=0.5;entryDx=0;entryDy=0;startArrow=classic;startFill=1;" edge="1" parent="1" source="5MSsTgGG1FDZMkBkM36z-6" target="5MSsTgGG1FDZMkBkM36z-3">
          <mxGeometry relative="1" as="geometry" />
        </mxCell>
        <mxCell id="5MSsTgGG1FDZMkBkM36z-6" value="Geo Hash Indexer Service" style="rounded=0;whiteSpace=wrap;html=1;fillColor=#dae8fc;strokeColor=#6c8ebf;" vertex="1" parent="1">
          <mxGeometry x="410" y="200" width="60" height="50" as="geometry" />
        </mxCell>
        <mxCell id="5MSsTgGG1FDZMkBkM36z-29" style="edgeStyle=orthogonalEdgeStyle;rounded=0;orthogonalLoop=1;jettySize=auto;html=1;entryX=0;entryY=0;entryDx=0;entryDy=37.5;entryPerimeter=0;startArrow=classic;startFill=1;" edge="1" parent="1" source="5MSsTgGG1FDZMkBkM36z-7" target="5MSsTgGG1FDZMkBkM36z-14">
          <mxGeometry relative="1" as="geometry" />
        </mxCell>
        <mxCell id="5MSsTgGG1FDZMkBkM36z-7" value="Matches Service" style="rounded=0;whiteSpace=wrap;html=1;fillColor=#dae8fc;strokeColor=#6c8ebf;" vertex="1" parent="1">
          <mxGeometry x="410" y="95" width="60" height="50" as="geometry" />
        </mxCell>
        <mxCell id="5MSsTgGG1FDZMkBkM36z-20" value="" style="edgeStyle=orthogonalEdgeStyle;rounded=0;orthogonalLoop=1;jettySize=auto;html=1;startArrow=classic;startFill=1;" edge="1" parent="1" source="5MSsTgGG1FDZMkBkM36z-8" target="5MSsTgGG1FDZMkBkM36z-4">
          <mxGeometry relative="1" as="geometry" />
        </mxCell>
        <mxCell id="5MSsTgGG1FDZMkBkM36z-8" value="Swipes Stream" style="rounded=0;whiteSpace=wrap;html=1;fillColor=#dae8fc;strokeColor=#6c8ebf;" vertex="1" parent="1">
          <mxGeometry x="410" y="20" width="60" height="50" as="geometry" />
        </mxCell>
        <mxCell id="5MSsTgGG1FDZMkBkM36z-24" value="" style="edgeStyle=orthogonalEdgeStyle;rounded=0;orthogonalLoop=1;jettySize=auto;html=1;startArrow=classic;startFill=1;" edge="1" parent="1" source="5MSsTgGG1FDZMkBkM36z-9" target="5MSsTgGG1FDZMkBkM36z-16">
          <mxGeometry relative="1" as="geometry" />
        </mxCell>
        <mxCell id="5MSsTgGG1FDZMkBkM36z-27" style="edgeStyle=orthogonalEdgeStyle;rounded=0;orthogonalLoop=1;jettySize=auto;html=1;startArrow=classic;startFill=1;" edge="1" parent="1" source="5MSsTgGG1FDZMkBkM36z-9" target="5MSsTgGG1FDZMkBkM36z-6">
          <mxGeometry relative="1" as="geometry" />
        </mxCell>
        <mxCell id="5MSsTgGG1FDZMkBkM36z-9" value="Profile Creator Service" style="rounded=0;whiteSpace=wrap;html=1;fillColor=#dae8fc;strokeColor=#6c8ebf;" vertex="1" parent="1">
          <mxGeometry x="280" y="260" width="60" height="50" as="geometry" />
        </mxCell>
        <mxCell id="5MSsTgGG1FDZMkBkM36z-22" value="" style="edgeStyle=orthogonalEdgeStyle;rounded=0;orthogonalLoop=1;jettySize=auto;html=1;startArrow=classic;startFill=1;" edge="1" parent="1" source="5MSsTgGG1FDZMkBkM36z-10" target="5MSsTgGG1FDZMkBkM36z-7">
          <mxGeometry relative="1" as="geometry" />
        </mxCell>
        <mxCell id="5MSsTgGG1FDZMkBkM36z-23" value="" style="edgeStyle=orthogonalEdgeStyle;rounded=0;orthogonalLoop=1;jettySize=auto;html=1;startArrow=classic;startFill=1;entryX=0;entryY=0.5;entryDx=0;entryDy=0;" edge="1" parent="1" source="5MSsTgGG1FDZMkBkM36z-10" target="5MSsTgGG1FDZMkBkM36z-6">
          <mxGeometry relative="1" as="geometry" />
        </mxCell>
        <mxCell id="5MSsTgGG1FDZMkBkM36z-10" value="Recommendation Service" style="rounded=0;whiteSpace=wrap;html=1;fillColor=#dae8fc;strokeColor=#6c8ebf;" vertex="1" parent="1">
          <mxGeometry x="270" y="145" width="100" height="60" as="geometry" />
        </mxCell>
        <mxCell id="5MSsTgGG1FDZMkBkM36z-19" value="" style="edgeStyle=orthogonalEdgeStyle;rounded=0;orthogonalLoop=1;jettySize=auto;html=1;startArrow=classic;startFill=1;" edge="1" parent="1" source="5MSsTgGG1FDZMkBkM36z-11" target="5MSsTgGG1FDZMkBkM36z-8">
          <mxGeometry relative="1" as="geometry" />
        </mxCell>
        <mxCell id="5MSsTgGG1FDZMkBkM36z-11" value="Swipes Service" style="rounded=0;whiteSpace=wrap;html=1;fillColor=#dae8fc;strokeColor=#6c8ebf;" vertex="1" parent="1">
          <mxGeometry x="280" y="20" width="60" height="50" as="geometry" />
        </mxCell>
        <mxCell id="5MSsTgGG1FDZMkBkM36z-18" value="" style="edgeStyle=orthogonalEdgeStyle;rounded=0;orthogonalLoop=1;jettySize=auto;html=1;startArrow=classic;startFill=1;" edge="1" parent="1" source="5MSsTgGG1FDZMkBkM36z-12" target="5MSsTgGG1FDZMkBkM36z-10">
          <mxGeometry relative="1" as="geometry" />
        </mxCell>
        <mxCell id="5MSsTgGG1FDZMkBkM36z-25" style="edgeStyle=orthogonalEdgeStyle;rounded=0;orthogonalLoop=1;jettySize=auto;html=1;entryX=0;entryY=0.5;entryDx=0;entryDy=0;startArrow=classic;startFill=1;exitX=0.5;exitY=1;exitDx=0;exitDy=0;" edge="1" parent="1" source="5MSsTgGG1FDZMkBkM36z-12" target="5MSsTgGG1FDZMkBkM36z-9">
          <mxGeometry relative="1" as="geometry" />
        </mxCell>
        <mxCell id="5MSsTgGG1FDZMkBkM36z-26" style="edgeStyle=orthogonalEdgeStyle;rounded=0;orthogonalLoop=1;jettySize=auto;html=1;entryX=0;entryY=0.25;entryDx=0;entryDy=0;startArrow=classic;startFill=1;exitX=0.5;exitY=0;exitDx=0;exitDy=0;" edge="1" parent="1" source="5MSsTgGG1FDZMkBkM36z-12" target="5MSsTgGG1FDZMkBkM36z-11">
          <mxGeometry relative="1" as="geometry" />
        </mxCell>
        <mxCell id="5MSsTgGG1FDZMkBkM36z-12" value="Tinder Gateway" style="rounded=0;whiteSpace=wrap;html=1;fillColor=#ffe6cc;strokeColor=#d79b00;" vertex="1" parent="1">
          <mxGeometry x="160" y="150" width="60" height="50" as="geometry" />
        </mxCell>
        <mxCell id="5MSsTgGG1FDZMkBkM36z-17" value="" style="edgeStyle=orthogonalEdgeStyle;rounded=0;orthogonalLoop=1;jettySize=auto;html=1;startArrow=classic;startFill=1;" edge="1" parent="1" source="5MSsTgGG1FDZMkBkM36z-13" target="5MSsTgGG1FDZMkBkM36z-12">
          <mxGeometry relative="1" as="geometry" />
        </mxCell>
        <mxCell id="5MSsTgGG1FDZMkBkM36z-13" value="Mobile Client" style="rounded=0;whiteSpace=wrap;html=1;fillColor=#f5f5f5;fontColor=#333333;strokeColor=#666666;" vertex="1" parent="1">
          <mxGeometry x="30" y="150" width="60" height="50" as="geometry" />
        </mxCell>
        <mxCell id="5MSsTgGG1FDZMkBkM36z-30" style="edgeStyle=orthogonalEdgeStyle;rounded=0;orthogonalLoop=1;jettySize=auto;html=1;entryX=0.5;entryY=1;entryDx=0;entryDy=0;startArrow=classic;startFill=1;" edge="1" parent="1" source="5MSsTgGG1FDZMkBkM36z-14" target="5MSsTgGG1FDZMkBkM36z-4">
          <mxGeometry relative="1" as="geometry" />
        </mxCell>
        <mxCell id="5MSsTgGG1FDZMkBkM36z-14" value="Matches" style="shape=cylinder3;whiteSpace=wrap;html=1;boundedLbl=1;backgroundOutline=1;size=15;fillColor=#fff2cc;strokeColor=#d6b656;" vertex="1" parent="1">
          <mxGeometry x="575" y="170" width="50" height="60" as="geometry" />
        </mxCell>
        <mxCell id="5MSsTgGG1FDZMkBkM36z-15" value="Likes Cache" style="shape=cylinder3;whiteSpace=wrap;html=1;boundedLbl=1;backgroundOutline=1;size=15;fillColor=#fff2cc;strokeColor=#d6b656;" vertex="1" parent="1">
          <mxGeometry x="720" y="15" width="50" height="60" as="geometry" />
        </mxCell>
        <mxCell id="5MSsTgGG1FDZMkBkM36z-16" value="User Profile Info" style="shape=cylinder3;whiteSpace=wrap;html=1;boundedLbl=1;backgroundOutline=1;size=15;fillColor=#fff2cc;strokeColor=#d6b656;" vertex="1" parent="1">
          <mxGeometry x="407.5" y="330" width="65" height="70" as="geometry" />
        </mxCell>
      </root>
    </mxGraphModel>
  </diagram>
</mxfile>
